<?xml version="1.0" standalone="no"?>
<!DOCTYPE svg PUBLIC "-//W3C//DTD SVG 20010904//EN"
 "http://www.w3.org/TR/2001/REC-SVG-20010904/DTD/svg10.dtd">
<svg version="1.0" xmlns="http://www.w3.org/2000/svg"
 width="334.000000pt" height="334.000000pt" viewBox="0 0 334.000000 334.000000"
 preserveAspectRatio="xMidYMid meet">
<metadata>
Created by potrace 1.11, written by Peter Selinger 2001-2013
</metadata>
<g transform="translate(0.000000,334.000000) scale(0.100000,-0.100000)"
fill="#000000" stroke="none">
<path d="M2627 3334 c-2 -2 -131 -14 -197 -19 -38 -3 -140 -12 -233 -21 -32
-3 -80 -7 -107 -9 -27 -2 -75 -6 -107 -9 -66 -7 -129 -13 -223 -21 -95 -8
-180 -15 -220 -20 -19 -2 -70 -7 -113 -10 -76 -6 -81 -8 -275 -119 -108 -62
-354 -202 -547 -311 -379 -214 -415 -235 -415 -240 0 -1 17 -1 37 1 21 2 99 5
172 6 l135 3 1 -53 c1 -39 -3 -57 -16 -65 -31 -22 -33 -54 -4 -83 24 -24 26
-32 21 -78 -3 -28 -8 -80 -11 -116 -3 -36 -8 -83 -10 -105 -12 -102 -18 -221
-19 -345 0 -118 4 -191 18 -380 2 -25 7 -90 11 -145 4 -55 9 -107 11 -115 1
-8 3 -37 3 -64 1 -27 3 -47 6 -44 6 6 12 69 20 208 3 52 7 129 10 170 4 41 8
102 10 135 6 80 6 387 0 450 -2 28 -7 86 -10 130 -8 124 -16 218 -20 244 -3
16 4 32 20 47 30 28 33 69 5 86 -16 10 -20 24 -20 70 l0 58 53 1 c28 1 79 3
112 4 192 11 305 13 305 6 0 -5 -5 -33 -11 -62 -14 -72 -21 -280 -10 -298 5
-7 44 -20 87 -27 43 -7 81 -17 86 -22 4 -4 -6 -28 -23 -52 -53 -79 -129 -251
-143 -326 -2 -10 -11 -46 -19 -79 -9 -33 -19 -85 -22 -115 -3 -30 -8 -73 -10
-95 -6 -54 -6 -278 0 -340 2 -27 7 -70 10 -95 8 -66 55 -251 72 -283 8 -16 12
-36 8 -45 -3 -9 -3 -13 1 -9 7 7 52 -70 86 -145 7 -16 16 -28 20 -28 4 0 8 -7
8 -16 0 -8 5 -12 10 -9 6 3 10 -1 10 -9 0 -9 18 -34 40 -56 22 -22 40 -44 40
-49 0 -5 9 -13 20 -16 18 -6 24 -17 21 -37 0 -4 7 -4 16 -1 12 5 15 2 10 -10
-4 -11 -2 -14 8 -10 9 3 18 -4 24 -18 5 -13 10 -18 10 -10 1 8 13 2 31 -17 17
-18 30 -29 30 -27 0 3 9 1 20 -5 11 -6 20 -18 20 -28 0 -13 2 -14 9 -4 7 11
17 8 52 -14 24 -16 47 -27 51 -26 4 1 5 -6 1 -16 -5 -14 -3 -15 8 -4 16 15 29
16 29 1 0 -5 -5 -7 -12 -3 -7 4 -8 3 -4 -4 4 -6 14 -8 23 -5 12 5 14 3 8 -8
-6 -11 -5 -11 5 -2 18 16 63 -5 55 -26 -4 -12 -2 -12 9 1 18 25 29 22 21 -4
-5 -21 -5 -21 5 -5 11 18 13 18 31 1 15 -14 17 -20 6 -33 -10 -12 -8 -12 12 2
17 11 28 13 37 6 8 -7 14 -7 19 1 4 6 1 9 -6 8 -6 -2 -14 4 -16 12 -3 9 -1 11
4 4 4 -5 23 -10 41 -9 18 0 36 -3 39 -7 2 -5 13 -6 24 -3 10 4 19 2 19 -2 0
-5 17 -17 38 -26 37 -17 37 -17 13 1 -18 14 -21 21 -11 27 9 5 11 4 6 -3 -9
-15 26 -16 40 -2 7 7 11 6 11 -4 0 -8 -4 -13 -9 -10 -4 3 -8 0 -8 -6 0 -7 6
-10 14 -7 17 7 39 -16 28 -28 -4 -5 -1 -5 5 -1 10 5 9 12 -3 31 -11 16 -12 25
-4 30 6 4 14 4 17 1 4 -3 1 -6 -6 -6 -9 0 -9 -4 1 -14 16 -18 29 -11 21 11 -6
15 -5 16 9 3 10 -9 13 -19 7 -25 -17 -18 -9 -25 10 -7 10 9 18 21 17 26 -1 5
11 10 26 11 15 1 25 -2 22 -7 -10 -16 9 -8 22 10 13 16 14 16 8 -1 -5 -13 -2
-16 10 -11 9 3 14 9 11 13 -2 4 2 8 10 8 8 0 12 -3 10 -6 -2 -4 3 -15 11 -25
12 -17 13 -16 9 13 -2 19 0 29 6 25 5 -3 17 0 26 8 12 9 15 10 9 0 -4 -7 -1
-14 8 -18 8 -3 12 -12 9 -20 -3 -8 -10 -11 -16 -7 -6 4 -7 1 -2 -7 6 -10 11
-10 20 3 7 9 15 14 18 10 4 -3 7 -4 7 0 0 3 -7 12 -15 20 -13 13 -13 16 1 21
8 3 12 2 9 -3 -6 -10 11 -24 33 -27 6 -1 12 2 12 7 0 6 5 7 10 4 6 -4 8 -11 5
-16 -10 -15 2 -10 16 8 8 10 9 14 2 10 -6 -4 -14 -3 -18 3 -4 7 -12 7 -26 0
-13 -7 -19 -7 -19 0 0 5 7 10 15 10 8 0 15 3 15 8 0 4 10 13 23 21 22 14 22
14 3 -8 -11 -11 -14 -21 -8 -21 6 0 18 10 26 22 9 12 16 17 16 10 0 -6 5 -12
11 -12 5 0 8 4 5 9 -3 5 1 15 10 22 12 10 15 10 12 -1 -2 -7 3 -15 10 -17 8
-3 10 2 6 14 -4 11 -3 14 3 7 4 -6 18 -16 30 -23 19 -10 22 -9 17 4 -3 8 -11
12 -18 8 -6 -3 -5 0 2 8 11 12 15 11 26 -3 20 -27 27 -21 10 10 -18 34 -18 46
0 30 8 -7 12 -16 9 -20 -2 -4 4 -5 13 -1 10 4 15 2 11 -4 -3 -5 0 -10 8 -10
13 0 13 3 0 17 -8 9 -15 23 -15 31 1 10 3 9 11 -3 12 -22 29 -23 29 -2 0 8 -5
12 -11 8 -8 -4 -8 0 0 15 11 20 23 26 45 22 5 -1 6 5 3 13 -4 9 -2 18 3 21 4
3 7 -6 5 -20 -2 -26 -15 -48 -15 -27 0 6 -7 9 -15 6 -21 -8 -19 -25 3 -18 10
4 13 2 7 -3 -12 -10 -18 -33 -7 -33 4 0 13 14 21 30 11 27 15 29 30 18 14 -11
14 -11 5 2 -5 8 -9 21 -8 28 1 6 2 18 3 25 1 9 4 8 10 -2 5 -8 7 -20 4 -28 -3
-7 -1 -13 5 -13 12 0 10 53 -3 63 -6 5 -2 6 9 3 13 -5 17 -2 13 8 -4 10 -1 13
8 9 8 -3 12 -9 9 -14 -7 -13 -3 -12 39 10 31 16 34 20 17 24 -13 3 -18 1 -13
-5 3 -7 1 -8 -6 -4 -6 4 -9 12 -6 17 4 5 1 9 -6 9 -7 0 -10 3 -6 6 3 3 12 2
19 -2 31 -20 58 -4 52 31 -2 13 0 26 6 30 5 3 7 0 5 -7 -3 -8 2 -22 10 -33 16
-19 16 -19 5 3 -12 25 3 57 21 46 5 -3 9 0 9 5 0 14 -13 14 -28 -1 -9 -9 -12
-9 -12 0 0 7 5 12 11 12 5 0 7 5 4 10 -4 6 -11 7 -17 4 -7 -4 -8 -2 -4 5 6 9
11 9 24 -1 12 -10 16 -10 19 0 3 6 10 9 15 6 7 -4 8 -2 4 4 -4 6 -13 9 -20 6
-8 -3 -17 -1 -21 5 -4 7 1 8 12 4 16 -6 17 -5 3 12 -15 18 -14 18 12 1 15 -10
33 -16 40 -13 8 3 6 6 -5 6 -10 1 -15 6 -12 11 4 6 12 7 18 4 8 -5 8 -3 0 7
-15 16 -17 33 -3 24 5 -3 18 -1 27 5 17 11 17 11 1 6 -11 -3 -22 2 -29 16 -6
11 -7 18 -1 14 5 -3 13 1 16 10 5 12 2 15 -11 10 -15 -6 -15 -5 1 13 10 11 15
25 11 31 -6 9 -2 9 14 1 11 -7 21 -14 21 -17 0 -3 -5 -2 -12 2 -7 5 -8 3 -3
-6 5 -9 4 -11 -3 -6 -7 4 -12 2 -12 -3 0 -6 5 -11 11 -11 6 0 3 -7 -5 -16 -20
-19 -20 -21 -1 -21 8 0 12 4 9 8 -2 4 4 12 13 18 11 6 13 11 5 11 -7 0 -10 5
-7 10 4 6 10 8 15 5 5 -3 12 0 16 6 4 8 3 9 -4 5 -15 -9 -37 33 -24 46 7 7 10
4 9 -7 -1 -10 5 -20 13 -22 13 -4 13 -3 0 6 -13 10 -12 14 8 31 13 10 23 23
24 27 0 4 3 14 5 21 3 7 -1 20 -8 29 -12 15 -12 16 6 10 18 -7 19 -6 3 6 -10
8 -14 18 -10 22 4 5 2 5 -5 1 -6 -3 -10 -15 -8 -25 2 -10 -1 -24 -6 -32 -7
-11 -9 -11 -9 -1 0 8 -5 10 -12 6 -9 -5 -9 -2 1 9 7 9 10 17 6 17 -4 0 -2 6 4
14 6 7 8 22 4 32 -6 17 -5 18 13 5 18 -14 18 -13 -1 6 -12 13 -74 38 -155 63
-74 23 -175 55 -225 71 -49 16 -92 26 -96 21 -3 -4 -12 -29 -19 -57 -7 -27
-33 -93 -57 -145 -35 -72 -60 -109 -107 -156 -64 -63 -158 -117 -232 -131 -52
-10 -225 -9 -249 2 -11 4 -30 10 -42 12 -29 5 -74 29 -74 39 -1 5 -3 11 -6 14
-4 3 -3 -1 1 -7 11 -19 0 -16 -44 12 -22 14 -40 30 -40 37 0 6 -3 8 -7 5 -11
-11 -95 83 -89 99 3 8 2 13 -3 10 -4 -3 -16 3 -26 14 -10 11 -14 20 -9 20 5 0
2 5 -6 10 -8 5 -10 10 -4 10 7 0 14 6 17 13 3 8 -1 14 -9 14 -7 0 -11 -4 -8
-9 3 -4 0 -8 -5 -8 -17 0 -13 18 7 29 10 6 12 11 4 11 -7 0 -10 5 -7 10 7 12
-12 40 -26 40 -5 0 -9 -5 -9 -10 0 -6 5 -9 12 -8 7 2 13 -7 14 -20 1 -12 -3
-22 -8 -22 -5 0 -6 9 -3 20 4 14 2 20 -7 18 -7 -2 -13 4 -13 12 0 8 -5 22 -10
30 -7 13 -6 13 7 2 14 -11 16 -10 11 7 -3 11 -10 19 -16 18 -6 -1 -12 8 -13
21 -1 12 -3 23 -4 25 -3 2 -9 47 -11 77 0 8 -3 22 -6 30 -11 29 -10 48 3 43 7
-2 11 -13 9 -24 -5 -23 1 -24 20 -5 12 12 12 15 -1 20 -8 3 -12 11 -8 17 4 8
3 9 -4 5 -7 -4 -12 -1 -12 7 0 23 12 28 27 9 12 -15 13 -14 1 8 -7 14 -11 28
-10 33 1 4 -4 7 -10 7 -9 0 -8 4 2 10 21 14 3 12 -23 -2 -18 -9 -20 -9 -11 3
5 8 9 25 7 39 -6 43 -6 54 2 74 7 15 5 17 -6 11 -12 -7 -12 -6 -1 7 8 9 21 14
30 11 10 -3 13 -1 7 4 -12 9 -16 63 -5 63 4 0 7 10 6 23 0 12 4 21 10 20 6 -1
11 5 11 12 0 12 -3 12 -15 2 -8 -6 -17 -11 -19 -9 -10 7 -14 0 -5 -11 7 -8 7
-18 2 -27 -5 -8 -6 -19 -3 -25 3 -5 -2 -2 -12 7 -13 12 -15 21 -8 30 5 7 9 29
8 49 -1 28 2 36 12 32 8 -3 12 -12 9 -19 -3 -8 -1 -14 4 -14 6 0 10 9 10 19 0
11 6 22 13 25 6 2 3 4 -8 3 -20 -2 -29 17 -10 19 6 1 15 3 20 4 6 1 14 2 18 1
5 -1 6 3 2 9 -5 8 -11 7 -21 -1 -9 -7 -14 -8 -14 -1 0 6 5 14 10 17 6 4 8 10
5 15 -3 5 3 13 12 19 10 6 13 11 8 11 -6 0 -16 -5 -23 -12 -9 -9 -12 -9 -12 1
0 7 -4 9 -10 6 -17 -11 -11 4 12 27 21 21 21 22 2 29 -17 7 -17 8 -1 8 18 1
19 21 2 33 -7 5 -6 8 1 8 5 0 19 -6 30 -14 18 -14 18 -15 2 -21 -10 -4 -15
-11 -12 -16 3 -6 0 -16 -6 -24 -7 -8 -8 -15 -3 -15 17 0 41 68 29 81 -8 9 -7
10 6 6 10 -3 20 -1 24 6 4 7 4 9 -1 5 -4 -4 -17 -3 -28 3 -15 9 -18 8 -12 -2
5 -8 4 -10 -4 -5 -6 4 -9 11 -6 16 3 4 -1 10 -7 13 -7 3 -3 4 9 4 12 -1 20 -4
17 -8 -6 -10 24 -5 33 6 4 4 2 5 -4 1 -7 -4 -14 -2 -14 3 -1 6 -2 16 -3 21 0
6 -8 15 -16 20 -13 8 -13 10 1 10 9 0 21 -10 27 -22 9 -19 11 -20 11 -5 1 10
5 16 9 13 5 -3 9 1 9 9 0 9 -4 11 -11 6 -7 -6 -16 -4 -24 5 -7 8 -9 14 -5 15
44 4 54 7 60 14 5 4 0 5 -9 2 -10 -3 -20 -2 -23 4 -4 5 -1 8 6 7 6 -2 14 3 16
10 3 8 -1 10 -11 6 -9 -3 -16 -1 -16 6 0 6 5 8 12 4 8 -5 9 -2 4 11 -5 15 -4
16 8 6 10 -8 16 -9 21 -1 3 5 12 10 18 10 7 0 3 -7 -7 -15 -16 -12 -17 -17 -6
-30 14 -17 30 -20 30 -4 0 5 -4 8 -9 4 -5 -3 -12 -1 -16 4 -3 5 2 14 12 20 17
9 17 10 -1 30 -10 11 -16 26 -13 33 4 9 6 8 6 -3 1 -27 32 -32 53 -9 11 11 23
18 28 15 5 -3 12 -1 15 5 4 6 1 9 -7 8 -8 -2 -12 4 -10 16 2 11 -1 15 -8 11
-6 -4 -9 -13 -6 -21 3 -9 0 -11 -11 -7 -10 4 -14 2 -10 -4 5 -7 -1 -9 -15 -5
-19 5 -20 7 -5 10 15 3 16 6 5 20 -11 15 -11 15 4 4 18 -14 34 0 22 20 -9 15
13 2 45 -26 l24 -21 -19 30 -18 30 22 -19 c23 -20 23 -20 16 0 -7 17 -6 18 11
4 15 -12 17 -12 10 -1 -6 11 -2 13 19 9 19 -4 29 -1 33 9 3 8 12 12 21 8 9 -3
13 -3 9 1 -4 4 4 17 18 29 13 13 23 25 22 27 -1 1 6 -6 16 -17 17 -20 17 -20
10 0 -6 18 -5 19 13 5 18 -14 18 -14 4 4 -16 21 -18 21 33 1 10 -4 17 -3 17 5
0 6 5 8 10 5 6 -3 10 -1 10 4 0 14 -13 14 -28 -1 -7 -7 -12 -8 -12 -2 0 14
-31 14 -47 1 -8 -6 -13 -6 -13 0 0 15 54 37 58 24 2 -6 8 -11 13 -11 6 0 7 5
4 10 -3 6 -2 10 4 10 5 0 13 -4 16 -10 3 -5 15 -10 25 -10 14 0 18 -5 14 -17
-5 -15 -4 -15 4 -3 8 10 8 18 0 27 -6 8 -8 16 -4 20 3 3 6 2 6 -4 0 -5 16 -9
34 -8 19 1 33 -2 31 -6 -3 -4 2 -9 10 -13 8 -3 17 -1 20 4 3 4 -1 10 -7 13 -7
3 -3 4 9 4 12 -1 21 -4 21 -7 -2 -18 4 -21 19 -9 13 11 15 11 9 1 -5 -9 -3
-12 5 -11 27 6 66 -11 78 -33 6 -13 9 -15 7 -6 -4 12 -1 15 10 11 7 -3 14 -11
14 -19 0 -7 6 -11 13 -8 7 2 27 -8 43 -23 16 -15 32 -26 37 -25 4 1 7 -4 7
-11 0 -7 11 -21 25 -31 19 -15 23 -21 13 -28 -10 -6 -9 -8 3 -8 16 0 34 -26
31 -42 -1 -5 2 -8 7 -8 8 0 20 -26 26 -55 1 -5 7 -23 13 -38 7 -16 12 -33 12
-38 0 -6 4 -8 8 -5 22 13 62 14 62 1 0 -8 5 -17 12 -21 8 -5 9 -2 5 9 -3 9 -2
16 3 14 5 -1 15 6 22 16 13 18 14 17 14 -2 0 -11 -4 -18 -7 -15 -4 2 -11 -1
-15 -7 -4 -7 -3 -9 4 -5 6 3 16 -2 21 -11 9 -15 10 -13 7 10 -4 23 -2 28 10
23 9 -3 19 -6 22 -6 4 0 0 -5 -8 -11 -13 -9 -13 -10 0 -6 8 2 14 10 13 16 -2
6 4 11 13 11 9 0 12 -5 8 -12 -5 -8 -1 -8 10 1 14 12 19 12 26 1 6 -10 13 -8
30 8 13 12 28 18 34 14 21 -12 38 -11 27 2 -7 9 -7 16 1 24 9 9 9 12 0 12 -6
0 -16 -8 -21 -17 -9 -16 -10 -16 -11 -2 0 21 28 33 45 19 6 -5 15 -7 18 -4 4
4 11 -5 17 -20 5 -15 14 -24 20 -21 5 3 10 8 10 11 0 3 -4 2 -10 -1 -5 -3 -10
1 -10 10 0 9 4 14 8 11 5 -3 9 1 9 9 0 10 -4 12 -12 5 -9 -7 -14 -6 -18 3 -3
9 2 13 16 12 12 -1 31 4 43 12 11 7 24 10 27 6 4 -3 16 3 27 15 12 12 17 22
12 22 -5 0 -14 12 -20 26 -7 14 -8 23 -3 19 5 -3 12 -1 15 4 3 5 -4 11 -16 14
-12 4 -19 9 -15 13 4 4 2 13 -4 21 -6 7 -8 13 -3 13 5 0 2 5 -6 11 -13 9 -13
10 0 6 8 -2 14 -11 12 -18 -2 -8 0 -10 4 -6 10 10 14 37 6 36 -20 -3 -32 2
-27 11 3 6 -1 10 -9 10 -19 0 -21 16 -4 26 7 5 8 3 3 -7 -8 -12 -6 -12 8 0 22
18 22 20 -8 17 -13 -2 -22 0 -20 4 3 5 -1 10 -9 13 -8 3 -17 19 -21 36 -4 17
-11 31 -16 31 -4 0 -16 14 -24 30 -9 17 -30 44 -47 60 -17 17 -27 30 -22 31 5
0 -1 4 -14 10 -14 5 -20 13 -16 20 4 7 3 9 -3 6 -6 -4 -19 3 -29 14 -11 12
-50 42 -89 66 -38 25 -72 49 -73 54 -2 5 -8 6 -13 3 -6 -3 -17 0 -25 7 -9 7
-21 14 -28 16 -6 1 -31 9 -56 19 -63 23 -147 44 -174 44 -37 0 -38 11 -1 51
32 35 34 41 23 66 -17 40 -77 120 -137 181 -28 29 -51 56 -51 60 1 4 114 88
252 187 138 99 256 185 262 191 6 6 20 16 31 22 18 11 15 12 -18 10 -21 -1
-39 -3 -40 -4z m-937 -1356 c0 -4 -4 -8 -9 -8 -6 0 -12 4 -15 8 -3 5 1 9 9 9
8 0 15 -4 15 -9z m-60 -18 c0 -5 -2 -10 -4 -10 -3 0 -8 5 -11 10 -3 6 -1 10 4
10 6 0 11 -4 11 -10z m-50 -60 c0 -5 -5 -10 -11 -10 -5 0 -7 5 -4 10 3 6 8 10
11 10 2 0 4 -4 4 -10z m-30 -80 c0 -5 -5 -10 -11 -10 -5 0 -7 5 -4 10 3 6 8
10 11 10 2 0 4 -4 4 -10z m1246 -5 c-3 -8 -1 -15 4 -15 6 0 10 8 11 18 0 10 3
12 6 4 2 -6 10 -9 16 -6 8 5 8 3 0 -6 -16 -17 -70 -20 -70 -4 0 7 6 10 14 7 7
-3 13 0 13 6 0 6 3 11 6 11 3 0 4 -7 0 -15z m-46 -10 c0 -7 -30 -13 -34 -7 -3
4 4 9 15 9 10 1 19 0 19 -2z m-1236 -186 c-3 -5 -15 -14 -27 -19 -20 -10 -20
-10 -5 3 13 10 14 17 6 25 -8 8 -5 9 10 5 12 -3 19 -9 16 -14z m-24 -213 c0
-2 -7 -6 -15 -10 -8 -3 -15 -1 -15 4 0 6 7 10 15 10 8 0 15 -2 15 -4z m-3
-217 c-6 -10 -13 -16 -16 -14 -2 3 2 12 10 22 12 15 12 16 -5 10 -16 -6 -17
-5 -6 8 18 22 32 -1 17 -26z m1567 -444 c-10 -16 -21 -22 -26 -17 -6 6 -1 19
14 33 28 29 35 20 12 -16z m-100 -160 c-4 -8 -11 -15 -16 -15 -6 0 -5 6 2 15
7 8 14 15 16 15 2 0 1 -7 -2 -15z m6 -31 c0 -8 -19 -13 -24 -6 -3 5 1 9 9 9 8
0 15 -2 15 -3z m-97 -156 c-6 -11 -31 2 -37 19 -5 13 -4 14 9 3 12 -10 15 -9
16 6 0 18 1 18 8 -1 5 -11 7 -23 4 -27z m-59 -34 c3 -8 2 -12 -4 -9 -6 3 -10
10 -10 16 0 14 7 11 14 -7z m-994 -245 c0 -14 -17 -10 -23 5 -4 10 -1 13 9 9
7 -3 14 -9 14 -14z"/>
<path d="M2087 2139 c8 -28 22 -33 16 -7 -4 19 -3 20 7 8 9 -12 11 -12 8 -1
-2 8 -11 15 -20 17 -11 1 -14 -4 -11 -17z"/>
<path d="M2170 2141 c0 -6 3 -11 8 -12 4 0 15 -2 25 -4 11 -2 16 0 12 3 -4 4
-10 7 -13 7 -4 0 -13 4 -19 8 -8 5 -13 4 -13 -2z"/>
<path d="M2970 2140 c0 -5 5 -10 11 -10 5 0 7 5 4 10 -3 6 -8 10 -11 10 -2 0
-4 -4 -4 -10z"/>
<path d="M2135 2120 c3 -5 8 -10 11 -10 2 0 4 5 4 10 0 6 -5 10 -11 10 -5 0
-7 -4 -4 -10z"/>
<path d="M2255 2120 c3 -5 11 -10 16 -10 6 0 7 5 4 10 -3 6 -11 10 -16 10 -6
0 -7 -4 -4 -10z"/>
<path d="M2230 2110 c0 -5 5 -10 11 -10 5 0 7 5 4 10 -3 6 -8 10 -11 10 -2 0
-4 -4 -4 -10z"/>
<path d="M3027 1997 c-3 -8 1 -14 8 -14 7 0 11 6 8 14 -3 7 -6 13 -8 13 -2 0
-5 -6 -8 -13z"/>
<path d="M3040 1941 c0 -13 39 -35 48 -27 3 3 0 6 -6 6 -6 0 -18 7 -26 16 -9
8 -16 11 -16 5z"/>
<path d="M3032 1868 c-13 -13 -22 -17 -22 -10 0 10 -5 10 -20 2 -11 -6 -20
-18 -20 -26 0 -8 5 -12 10 -9 6 4 7 11 4 17 -4 7 -2 8 4 4 7 -4 12 -15 13 -24
0 -12 3 -10 10 6 5 13 13 20 19 17 6 -4 7 -11 4 -17 -4 -7 -2 -8 5 -4 9 6 9
11 1 21 -7 8 -7 15 -1 19 5 3 11 0 14 -6 2 -7 8 -9 13 -5 5 4 2 12 -5 16 -11
7 -11 10 0 14 8 3 9 6 4 6 -6 1 -21 -9 -33 -21z"/>
<path d="M2885 1820 c-3 -5 -1 -10 4 -10 6 0 11 5 11 10 0 6 -2 10 -4 10 -3 0
-8 -4 -11 -10z"/>
<path d="M2836 1782 c-3 -5 1 -9 9 -9 8 0 12 4 9 9 -3 4 -7 8 -9 8 -2 0 -6 -4
-9 -8z"/>
<path d="M2589 1763 c-11 -15 -11 -16 1 -6 11 10 16 9 27 -5 13 -15 13 -15 3
6 -13 27 -14 27 -31 5z"/>
<path d="M2660 1746 c0 -2 8 -10 18 -17 15 -13 16 -12 3 4 -13 16 -21 21 -21
13z"/>
<path d="M1475 1469 c-4 -6 -5 -12 -2 -15 2 -3 7 2 10 11 7 17 1 20 -8 4z"/>
<path d="M1487 1369 c7 -7 15 -10 18 -7 3 3 -2 9 -12 12 -14 6 -15 5 -6 -5z"/>
<path d="M1476 1333 c-4 -10 -2 -19 3 -21 6 -2 9 -8 5 -13 -3 -5 0 -9 7 -9 8
0 9 -4 0 -13 -8 -10 -7 -14 3 -14 9 0 13 8 10 19 -2 10 -6 28 -9 39 -6 30 -11
33 -19 12z"/>
<path d="M1496 1083 c-3 -4 1 -17 9 -29 9 -15 11 -25 5 -29 -12 -7 -4 -25 11
-25 10 0 8 28 -5 49 -5 8 -4 16 4 21 9 5 8 9 -3 13 -8 3 -18 3 -21 0z"/>
<path d="M1513 973 c0 -9 4 -10 14 -2 7 6 13 12 13 14 0 1 -6 2 -13 2 -8 0
-14 -6 -14 -14z"/>
<path d="M1589 799 c-6 -13 -7 -19 -1 -15 6 3 12 0 15 -6 2 -7 4 -1 3 14 -1
34 -2 34 -17 7z"/>
<path d="M1636 722 c-3 -5 1 -9 9 -9 8 0 12 4 9 9 -3 4 -7 8 -9 8 -2 0 -6 -4
-9 -8z"/>
<path d="M1666 678 c3 -5 10 -6 15 -3 13 9 11 12 -6 12 -8 0 -12 -4 -9 -9z"/>
<path d="M2950 490 c-9 -6 -10 -10 -3 -10 6 0 15 5 18 10 8 12 4 12 -15 0z"/>
<path d="M2910 439 c0 -5 5 -7 10 -4 6 3 10 8 10 11 0 2 -4 4 -10 4 -5 0 -10
-5 -10 -11z"/>
<path d="M2767 324 c-3 -4 -2 -14 3 -24 5 -10 6 -21 2 -25 -4 -5 -2 -5 5 -1 7
4 9 14 6 23 -5 12 -3 14 8 8 12 -8 12 -6 0 8 -15 19 -15 19 -24 11z"/>
<path d="M1456 243 c-6 -14 -5 -15 5 -6 7 7 10 15 7 18 -3 3 -9 -2 -12 -12z"/>
<path d="M1510 222 c9 -19 30 -23 30 -5 0 4 -3 3 -7 0 -3 -4 -12 1 -20 11 -13
15 -13 15 -3 -6z"/>
<path d="M1555 180 c3 -5 8 -10 11 -10 2 0 4 5 4 10 0 6 -5 10 -11 10 -5 0 -7
-4 -4 -10z"/>
<path d="M2493 151 c-1 -14 5 -18 28 -17 16 0 29 5 29 9 0 5 -6 7 -12 4 -7 -2
-20 2 -28 9 -14 11 -16 11 -17 -5z"/>
<path d="M1663 145 c0 -8 4 -12 8 -9 4 2 10 -2 12 -8 4 -8 6 -9 6 -2 1 6 -5
17 -12 23 -10 8 -14 7 -14 -4z"/>
<path d="M2456 142 c-2 -4 -1 -14 3 -21 6 -10 10 -9 14 3 6 16 -8 32 -17 18z"/>
<path d="M1750 121 c0 -6 4 -13 10 -16 6 -3 7 1 4 9 -7 18 -14 21 -14 7z"/>
<path d="M2301 111 c-11 -7 -11 -13 -1 -27 9 -15 10 -15 6 -2 -3 11 1 18 12
20 10 2 13 6 7 10 -6 4 -17 3 -24 -1z"/>
<path d="M1857 96 c-4 -11 -5 -21 -2 -24 3 -3 5 0 5 7 0 9 5 9 20 1 16 -9 19
-8 13 6 -5 13 -3 15 7 9 9 -5 11 -4 6 4 -6 9 -11 9 -21 1 -10 -8 -14 -8 -17 2
-3 7 -7 5 -11 -6z"/>
<path d="M1921 86 c-9 -11 -9 -16 1 -22 7 -4 10 -4 6 1 -4 4 -3 14 3 22 6 7 9
13 6 13 -2 0 -10 -6 -16 -14z"/>
<path d="M2161 84 c6 -7 16 -11 21 -8 11 7 3 17 -18 20 -12 2 -13 -1 -3 -12z"/>
<path d="M2238 89 c-10 -5 -18 -7 -18 -3 0 3 -7 1 -15 -6 -8 -7 -15 -18 -15
-24 0 -6 5 -3 11 7 9 15 13 16 26 5 21 -17 40 -18 40 -2 0 9 -4 11 -12 4 -7
-5 -15 -7 -18 -3 -4 3 1 12 11 19 20 16 14 18 -10 3z"/>
<path d="M2393 75 c0 -8 4 -12 9 -9 5 3 6 10 3 15 -9 13 -12 11 -12 -6z"/>
<path d="M2140 59 c0 -5 5 -7 10 -4 6 3 10 8 10 11 0 2 -4 4 -10 4 -5 0 -10
-5 -10 -11z"/>
</g>
</svg>
